{
	"patcher" : 	{
		"fileversion" : 1,
		"appversion" : 		{
			"major" : 8,
			"minor" : 1,
			"revision" : 1,
			"architecture" : "x64",
			"modernui" : 1
		}
,
		"classnamespace" : "box",
		"rect" : [ 386.0, 99.0, 640.0, 480.0 ],
		"bglocked" : 0,
		"openinpresentation" : 1,
		"default_fontsize" : 12.0,
		"default_fontface" : 0,
		"default_fontname" : "Arial",
		"gridonopen" : 1,
		"gridsize" : [ 15.0, 15.0 ],
		"gridsnaponopen" : 1,
		"objectsnaponopen" : 1,
		"statusbarvisible" : 2,
		"toolbarvisible" : 1,
		"lefttoolbarpinned" : 0,
		"toptoolbarpinned" : 0,
		"righttoolbarpinned" : 0,
		"bottomtoolbarpinned" : 0,
		"toolbars_unpinned_last_save" : 0,
		"tallnewobj" : 0,
		"boxanimatetime" : 200,
		"enablehscroll" : 1,
		"enablevscroll" : 1,
		"devicewidth" : 0.0,
		"description" : "",
		"digest" : "",
		"tags" : "",
		"style" : "",
		"subpatcher_template" : "",
		"boxes" : [ 			{
				"box" : 				{
					"comment" : "audio output R",
					"id" : "obj-4",
					"index" : 0,
					"maxclass" : "outlet",
					"numinlets" : 1,
					"numoutlets" : 0,
					"patching_rect" : [ 107.3720703125, 403.174072265625, 30.0, 30.0 ]
				}

			}
, 			{
				"box" : 				{
					"comment" : "audio output L",
					"id" : "obj-5",
					"index" : 0,
					"maxclass" : "outlet",
					"numinlets" : 1,
					"numoutlets" : 0,
					"patching_rect" : [ 74.90350341796875, 403.174072265625, 30.0, 30.0 ]
				}

			}
, 			{
				"box" : 				{
					"comment" : "freeze (0, 1)",
					"id" : "obj-3",
					"index" : 0,
					"maxclass" : "inlet",
					"numinlets" : 0,
					"numoutlets" : 1,
					"outlettype" : [ "" ],
					"patching_rect" : [ 306.3583984375, 92.7786865234375, 30.0, 30.0 ]
				}

			}
, 			{
				"box" : 				{
					"comment" : "signal input R",
					"id" : "obj-2",
					"index" : 0,
					"maxclass" : "inlet",
					"numinlets" : 0,
					"numoutlets" : 1,
					"outlettype" : [ "" ],
					"patching_rect" : [ 180.82366943359375, 84.0, 30.0, 30.0 ]
				}

			}
, 			{
				"box" : 				{
					"comment" : "signal input L",
					"id" : "obj-1",
					"index" : 0,
					"maxclass" : "inlet",
					"numinlets" : 0,
					"numoutlets" : 1,
					"outlettype" : [ "" ],
					"patching_rect" : [ 146.48358154296875, 84.0, 30.0, 30.0 ]
				}

			}
, 			{
				"box" : 				{
					"id" : "obj-19",
					"maxclass" : "newobj",
					"numinlets" : 1,
					"numoutlets" : 3,
					"outlettype" : [ "", "", "" ],
					"patching_rect" : [ 185.968505859375, 239.9765625, 106.0, 22.0 ],
					"restore" : [ 0.0 ],
					"saved_object_attributes" : 					{
						"parameter_enable" : 0,
						"parameter_mappable" : 0
					}
,
					"text" : "pattr #0-freeze-vol",
					"varname" : "#0-freeze-vol"
				}

			}
, 			{
				"box" : 				{
					"id" : "obj-20",
					"linecolor" : [ 0.843137254901961, 0.843137254901961, 0.843137254901961, 1.0 ],
					"maxclass" : "live.line",
					"numinlets" : 1,
					"numoutlets" : 0,
					"patching_rect" : [ 13.48358154296875, 18.727203369140625, 5.0, 100.0 ],
					"presentation" : 1,
					"presentation_rect" : [ -1.0, 28.571006774902344, 150.0, 5.0 ]
				}

			}
, 			{
				"box" : 				{
					"fontface" : 1,
					"fontname" : "Ableton Sans Bold Regular",
					"fontsize" : 12.0,
					"hint" : "Set the input volume\n",
					"id" : "obj-1456",
					"maxclass" : "comment",
					"numinlets" : 1,
					"numoutlets" : 0,
					"patching_rect" : [ 62.98358154296875, 11.594146728515625, 54.0, 21.0 ],
					"presentation" : 1,
					"presentation_rect" : [ 53.5, 5.571006774902344, 42.0, 21.0 ],
					"text" : "freeze",
					"textcolor" : [ 0.996078431372549, 0.996078431372549, 0.996078431372549, 1.0 ]
				}

			}
, 			{
				"box" : 				{
					"id" : "obj-1872",
					"maxclass" : "newobj",
					"numinlets" : 1,
					"numoutlets" : 1,
					"outlettype" : [ "bang" ],
					"patching_rect" : [ 459.439453125, 469.4632568359375, 22.0, 22.0 ],
					"text" : "t b"
				}

			}
, 			{
				"box" : 				{
					"id" : "obj-1871",
					"maxclass" : "message",
					"numinlets" : 2,
					"numoutlets" : 1,
					"outlettype" : [ "" ],
					"patching_rect" : [ 449.439453125, 503.4632568359375, 83.0, 22.0 ],
					"text" : "range -0.3 0.3"
				}

			}
, 			{
				"box" : 				{
					"id" : "obj-1869",
					"maxclass" : "newobj",
					"numinlets" : 1,
					"numoutlets" : 1,
					"outlettype" : [ "" ],
					"patching_rect" : [ 278.06787109375, 452.4632568359375, 77.0, 22.0 ],
					"text" : "loadmess 20"
				}

			}
, 			{
				"box" : 				{
					"id" : "obj-1817",
					"maxclass" : "newobj",
					"numinlets" : 1,
					"numoutlets" : 1,
					"outlettype" : [ "" ],
					"patching_rect" : [ 459.439453125, 433.4632568359375, 87.0, 22.0 ],
					"text" : "loadmess 110"
				}

			}
, 			{
				"box" : 				{
					"bgcolor" : [ 0.2, 0.2, 0.2, 0.0 ],
					"bufsize" : 110,
					"calccount" : 20,
					"fgcolor" : [ 0.427450980392157, 0.843137254901961, 1.0, 1.0 ],
					"gridcolor" : [ 0.996078431372549, 0.996078431372549, 0.996078431372549, 0.0 ],
					"id" : "obj-1816",
					"maxclass" : "scope~",
					"numinlets" : 2,
					"numoutlets" : 0,
					"patching_rect" : [ 237.10595703125, 508.0157470703125, 137.0, 45.0 ],
					"presentation" : 1,
					"presentation_rect" : [ 6.676320850849152, 73.926788330078125, 96.818617165088654, 45.0 ],
					"range" : [ -0.3, 0.3 ]
				}

			}
, 			{
				"box" : 				{
					"bgcolor" : [ 0.2, 0.2, 0.2, 0.0 ],
					"bufsize" : 110,
					"calccount" : 20,
					"fgcolor" : [ 0.996078431372549, 0.996078431372549, 0.996078431372549, 1.0 ],
					"gridcolor" : [ 0.996078431372549, 0.996078431372549, 0.996078431372549, 0.0 ],
					"id" : "obj-1807",
					"maxclass" : "scope~",
					"numinlets" : 2,
					"numoutlets" : 0,
					"patching_rect" : [ 237.10595703125, 508.0157470703125, 137.0, 45.0 ],
					"presentation" : 1,
					"presentation_rect" : [ 6.676320850849152, 73.926788330078125, 96.818617165088654, 45.0 ],
					"range" : [ -0.3, 0.3 ]
				}

			}
, 			{
				"box" : 				{
					"fgcolor" : [ 0.427450980392157, 0.843137254901961, 1.0, 1.0 ],
					"id" : "obj-1152",
					"markercolor" : [ 0.349019607843137, 0.349019607843137, 0.349019607843137, 0.0 ],
					"maxclass" : "spectroscope~",
					"numinlets" : 2,
					"numoutlets" : 1,
					"outlettype" : [ "" ],
					"patching_rect" : [ 310.3583984375, 381.0157470703125, 137.0, 45.0 ],
					"sonomonobgcolor" : [ 0.2, 0.2, 0.2, 1.0 ],
					"sonomonofgcolor" : [ 0.290196078431373, 0.435294117647059, 0.482352941176471, 1.0 ]
				}

			}
, 			{
				"box" : 				{
					"activebgcolor" : [ 0.2, 0.2, 0.2, 1.0 ],
					"bordercolor" : [ 0.396078431372549, 0.396078431372549, 0.396078431372549, 1.0 ],
					"focusbordercolor" : [ 0.396078431372549, 0.396078431372549, 0.396078431372549, 1.0 ],
					"fontname" : "Arial",
					"fontsize" : 9.0,
					"id" : "obj-1758",
					"maxclass" : "live.numbox",
					"numinlets" : 1,
					"numoutlets" : 2,
					"outlettype" : [ "", "float" ],
					"parameter_enable" : 1,
					"patching_rect" : [ 233.1064453125, 176.92510986328125, 44.0, 14.0 ],
					"saved_attribute_attributes" : 					{
						"valueof" : 						{
							"parameter_longname" : "Freeze-fade-time",
							"parameter_initial_enable" : 1,
							"parameter_mmax" : 5000.0,
							"parameter_initial" : [ 2000 ],
							"parameter_shortname" : "live.numbox",
							"parameter_type" : 0,
							"parameter_unitstyle" : 2,
							"parameter_linknames" : 1
						}

					}
,
					"textcolor" : [ 0.843137254901961, 0.843137254901961, 0.843137254901961, 1.0 ],
					"varname" : "Freeze-fade-time"
				}

			}
, 			{
				"box" : 				{
					"fontname" : "Arial Bold",
					"fontsize" : 9.0,
					"id" : "obj-1759",
					"maxclass" : "comment",
					"numinlets" : 1,
					"numoutlets" : 0,
					"patching_rect" : [ 385.98779296875, 164.92510986328125, 65.0, 17.0 ],
					"text" : "fade time",
					"textcolor" : [ 0.545098066329956, 0.545098066329956, 0.545098066329956, 1.0 ]
				}

			}
, 			{
				"box" : 				{
					"id" : "obj-1482",
					"maxclass" : "newobj",
					"numinlets" : 2,
					"numoutlets" : 2,
					"outlettype" : [ "signal", "signal" ],
					"patcher" : 					{
						"fileversion" : 1,
						"appversion" : 						{
							"major" : 8,
							"minor" : 1,
							"revision" : 1,
							"architecture" : "x64",
							"modernui" : 1
						}
,
						"classnamespace" : "box",
						"rect" : [ 0.0, 0.0, 640.0, 480.0 ],
						"bglocked" : 0,
						"openinpresentation" : 0,
						"default_fontsize" : 12.0,
						"default_fontface" : 0,
						"default_fontname" : "Arial",
						"gridonopen" : 1,
						"gridsize" : [ 15.0, 15.0 ],
						"gridsnaponopen" : 1,
						"objectsnaponopen" : 1,
						"statusbarvisible" : 2,
						"toolbarvisible" : 1,
						"lefttoolbarpinned" : 0,
						"toptoolbarpinned" : 0,
						"righttoolbarpinned" : 0,
						"bottomtoolbarpinned" : 0,
						"toolbars_unpinned_last_save" : 0,
						"tallnewobj" : 0,
						"boxanimatetime" : 200,
						"enablehscroll" : 1,
						"enablevscroll" : 1,
						"devicewidth" : 0.0,
						"description" : "",
						"digest" : "",
						"tags" : "",
						"style" : "",
						"subpatcher_template" : "",
						"boxes" : [ 							{
								"box" : 								{
									"id" : "obj-410",
									"maxclass" : "newobj",
									"numinlets" : 2,
									"numoutlets" : 4,
									"outlettype" : [ "signal", "signal", "list", "list" ],
									"patching_rect" : [ 197.513916015625, 183.617431640625, 94.0, 22.0 ],
									"text" : "omx.peaklim~"
								}

							}
, 							{
								"box" : 								{
									"id" : "obj-411",
									"maxclass" : "newobj",
									"numinlets" : 1,
									"numoutlets" : 1,
									"outlettype" : [ "bang" ],
									"patching_rect" : [ 50.0, 100.0, 58.0, 22.0 ],
									"text" : "loadbang"
								}

							}
, 							{
								"box" : 								{
									"id" : "obj-415",
									"maxclass" : "message",
									"numinlets" : 2,
									"numoutlets" : 1,
									"outlettype" : [ "" ],
									"patching_rect" : [ 107.0, 142.867431640625, 85.0, 22.0 ],
									"text" : "meterRate 25."
								}

							}
, 							{
								"box" : 								{
									"id" : "obj-417",
									"maxclass" : "message",
									"numinlets" : 2,
									"numoutlets" : 1,
									"outlettype" : [ "" ],
									"patching_rect" : [ 50.0, 142.867431640625, 55.0, 22.0 ],
									"text" : "meters 1"
								}

							}
, 							{
								"box" : 								{
									"comment" : "",
									"id" : "obj-420",
									"index" : 1,
									"maxclass" : "inlet",
									"numinlets" : 0,
									"numoutlets" : 1,
									"outlettype" : [ "signal" ],
									"patching_rect" : [ 197.513916015625, 40.0, 30.0, 30.0 ]
								}

							}
, 							{
								"box" : 								{
									"comment" : "",
									"id" : "obj-421",
									"index" : 2,
									"maxclass" : "inlet",
									"numinlets" : 0,
									"numoutlets" : 1,
									"outlettype" : [ "signal" ],
									"patching_rect" : [ 272.513916015625, 40.0, 30.0, 30.0 ]
								}

							}
, 							{
								"box" : 								{
									"comment" : "",
									"id" : "obj-422",
									"index" : 1,
									"maxclass" : "outlet",
									"numinlets" : 1,
									"numoutlets" : 0,
									"patching_rect" : [ 197.513916015625, 265.617431640625, 30.0, 30.0 ]
								}

							}
, 							{
								"box" : 								{
									"comment" : "",
									"id" : "obj-510",
									"index" : 2,
									"maxclass" : "outlet",
									"numinlets" : 1,
									"numoutlets" : 0,
									"patching_rect" : [ 272.513916015625, 265.617431640625, 30.0, 30.0 ]
								}

							}
 ],
						"lines" : [ 							{
								"patchline" : 								{
									"destination" : [ "obj-422", 0 ],
									"source" : [ "obj-410", 0 ]
								}

							}
, 							{
								"patchline" : 								{
									"destination" : [ "obj-510", 0 ],
									"source" : [ "obj-410", 1 ]
								}

							}
, 							{
								"patchline" : 								{
									"destination" : [ "obj-415", 0 ],
									"order" : 0,
									"source" : [ "obj-411", 0 ]
								}

							}
, 							{
								"patchline" : 								{
									"destination" : [ "obj-417", 0 ],
									"order" : 1,
									"source" : [ "obj-411", 0 ]
								}

							}
, 							{
								"patchline" : 								{
									"destination" : [ "obj-410", 0 ],
									"midpoints" : [ 116.5, 173.742431640625, 207.013916015625, 173.742431640625 ],
									"source" : [ "obj-415", 0 ]
								}

							}
, 							{
								"patchline" : 								{
									"destination" : [ "obj-410", 0 ],
									"midpoints" : [ 59.5, 173.742431640625, 207.013916015625, 173.742431640625 ],
									"source" : [ "obj-417", 0 ]
								}

							}
, 							{
								"patchline" : 								{
									"destination" : [ "obj-410", 0 ],
									"source" : [ "obj-420", 0 ]
								}

							}
, 							{
								"patchline" : 								{
									"destination" : [ "obj-410", 1 ],
									"source" : [ "obj-421", 0 ]
								}

							}
 ]
					}
,
					"patching_rect" : [ 86.439453125, 246.01568603515625, 62.0, 22.0 ],
					"saved_object_attributes" : 					{
						"description" : "",
						"digest" : "",
						"globalpatchername" : "",
						"tags" : ""
					}
,
					"text" : "p peaklim"
				}

			}
, 			{
				"box" : 				{
					"coldcolor" : [ 0.427450980392157, 0.843137254901961, 1.0, 1.0 ],
					"fontname" : "Arial",
					"fontsize" : 9.0,
					"hotcolor" : [ 0.168627450980392, 0.56078431372549, 0.749019607843137, 1.0 ],
					"id" : "obj-1757",
					"lastchannelcount" : 0,
					"maxclass" : "live.gain~",
					"numinlets" : 2,
					"numoutlets" : 5,
					"outlettype" : [ "signal", "signal", "", "float", "list" ],
					"parameter_enable" : 1,
					"patching_rect" : [ 86.3720703125, 276.58209228515625, 51.0, 62.0 ],
					"presentation" : 1,
					"presentation_rect" : [ 107.2183837890625, 44.38177490234375, 34.0, 75.0 ],
					"saved_attribute_attributes" : 					{
						"valueof" : 						{
							"parameter_mmin" : -70.0,
							"parameter_longname" : "Freeze-vol",
							"parameter_mmax" : 6.0,
							"parameter_initial" : [ 0.0 ],
							"parameter_shortname" : "vol",
							"parameter_type" : 0,
							"parameter_unitstyle" : 4,
							"parameter_linknames" : 1
						}

					}
,
					"textcolor" : [ 0.996078431372549, 0.996078431372549, 0.996078431372549, 1.0 ],
					"tricolor" : [ 0.643137254901961, 0.643137254901961, 0.643137254901961, 1.0 ],
					"trioncolor" : [ 0.541176470588235, 0.541176470588235, 0.541176470588235, 1.0 ],
					"varname" : "Freeze-vol",
					"warmcolor" : [ 0.427450980392157, 0.843137254901961, 1.0, 1.0 ]
				}

			}
, 			{
				"box" : 				{
					"id" : "obj-1481",
					"maxclass" : "newobj",
					"numinlets" : 4,
					"numoutlets" : 2,
					"outlettype" : [ "signal", "signal" ],
					"patcher" : 					{
						"fileversion" : 1,
						"appversion" : 						{
							"major" : 8,
							"minor" : 1,
							"revision" : 1,
							"architecture" : "x64",
							"modernui" : 1
						}
,
						"classnamespace" : "box",
						"rect" : [ 163.0, 360.0, 786.0, 605.0 ],
						"bglocked" : 0,
						"openinpresentation" : 0,
						"default_fontsize" : 12.0,
						"default_fontface" : 0,
						"default_fontname" : "Arial",
						"gridonopen" : 1,
						"gridsize" : [ 15.0, 15.0 ],
						"gridsnaponopen" : 1,
						"objectsnaponopen" : 1,
						"statusbarvisible" : 2,
						"toolbarvisible" : 1,
						"lefttoolbarpinned" : 0,
						"toptoolbarpinned" : 0,
						"righttoolbarpinned" : 0,
						"bottomtoolbarpinned" : 0,
						"toolbars_unpinned_last_save" : 0,
						"tallnewobj" : 0,
						"boxanimatetime" : 200,
						"enablehscroll" : 1,
						"enablevscroll" : 1,
						"devicewidth" : 0.0,
						"description" : "",
						"digest" : "",
						"tags" : "",
						"style" : "",
						"subpatcher_template" : "",
						"boxes" : [ 							{
								"box" : 								{
									"comment" : "",
									"id" : "obj-11",
									"index" : 2,
									"maxclass" : "inlet",
									"numinlets" : 0,
									"numoutlets" : 1,
									"outlettype" : [ "" ],
									"patching_rect" : [ 179.0, 3.99993896484375, 30.0, 30.0 ]
								}

							}
, 							{
								"box" : 								{
									"id" : "obj-8",
									"maxclass" : "toggle",
									"numinlets" : 1,
									"numoutlets" : 1,
									"outlettype" : [ "int" ],
									"parameter_enable" : 0,
									"patching_rect" : [ 318.0, 39.0, 24.0, 24.0 ]
								}

							}
, 							{
								"box" : 								{
									"comment" : "",
									"id" : "obj-4",
									"index" : 1,
									"maxclass" : "inlet",
									"numinlets" : 0,
									"numoutlets" : 1,
									"outlettype" : [ "" ],
									"patching_rect" : [ 143.0, 3.99993896484375, 30.0, 30.0 ]
								}

							}
, 							{
								"box" : 								{
									"comment" : "",
									"id" : "obj-2",
									"index" : 2,
									"maxclass" : "outlet",
									"numinlets" : 1,
									"numoutlets" : 0,
									"patching_rect" : [ 318.0, 510.99993896484375, 30.0, 30.0 ]
								}

							}
, 							{
								"box" : 								{
									"comment" : "",
									"id" : "obj-1",
									"index" : 1,
									"maxclass" : "outlet",
									"numinlets" : 1,
									"numoutlets" : 0,
									"patching_rect" : [ 284.0, 510.99993896484375, 30.0, 30.0 ]
								}

							}
, 							{
								"box" : 								{
									"comment" : "",
									"id" : "obj-3",
									"index" : 3,
									"maxclass" : "inlet",
									"numinlets" : 0,
									"numoutlets" : 1,
									"outlettype" : [ "" ],
									"patching_rect" : [ 248.0, 3.99993896484375, 30.0, 30.0 ]
								}

							}
, 							{
								"box" : 								{
									"id" : "obj-54",
									"maxclass" : "newobj",
									"numinlets" : 3,
									"numoutlets" : 3,
									"outlettype" : [ "bang", "bang", "" ],
									"patching_rect" : [ 318.0, 64.6063232421875, 44.0, 22.0 ],
									"text" : "sel 1 0"
								}

							}
, 							{
								"box" : 								{
									"fontname" : "Arial",
									"fontsize" : 12.0,
									"id" : "obj-1152",
									"maxclass" : "newobj",
									"numinlets" : 2,
									"numoutlets" : 1,
									"outlettype" : [ "bang" ],
									"patching_rect" : [ 466.0, 118.99993896484375, 57.0, 22.0 ],
									"text" : "delay 20"
								}

							}
, 							{
								"box" : 								{
									"fontname" : "Arial",
									"fontsize" : 12.0,
									"id" : "obj-1154",
									"maxclass" : "message",
									"numinlets" : 2,
									"numoutlets" : 1,
									"outlettype" : [ "" ],
									"patching_rect" : [ 466.0, 88.6063232421875, 42.0, 22.0 ],
									"text" : "clear"
								}

							}
, 							{
								"box" : 								{
									"fontname" : "Arial",
									"fontsize" : 12.0,
									"id" : "obj-1205",
									"maxclass" : "newobj",
									"numinlets" : 2,
									"numoutlets" : 2,
									"outlettype" : [ "signal", "" ],
									"patching_rect" : [ 318.0, 202.99993896484375, 167.0, 22.0 ],
									"text" : "pfft~ freeze8.pfft 4096 4"
								}

							}
, 							{
								"box" : 								{
									"fontname" : "Arial",
									"fontsize" : 12.0,
									"id" : "obj-1206",
									"maxclass" : "newobj",
									"numinlets" : 2,
									"numoutlets" : 2,
									"outlettype" : [ "signal", "" ],
									"patching_rect" : [ 284.0, 163.99993896484375, 167.0, 22.0 ],
									"text" : "pfft~ freeze8.pfft 4096 4"
								}

							}
, 							{
								"box" : 								{
									"fontname" : "Arial",
									"fontsize" : 11.0,
									"id" : "obj-1282",
									"maxclass" : "message",
									"numinlets" : 2,
									"numoutlets" : 1,
									"outlettype" : [ "" ],
									"patching_rect" : [ 318.0, 88.6063232421875, 45.0, 21.0 ],
									"text" : "freeze"
								}

							}
, 							{
								"box" : 								{
									"comment" : "",
									"id" : "obj-1479",
									"index" : 4,
									"maxclass" : "inlet",
									"numinlets" : 0,
									"numoutlets" : 1,
									"outlettype" : [ "" ],
									"patching_rect" : [ 318.0, 4.0, 30.0, 30.0 ]
								}

							}
 ],
						"lines" : [ 							{
								"patchline" : 								{
									"destination" : [ "obj-1205", 0 ],
									"source" : [ "obj-11", 0 ]
								}

							}
, 							{
								"patchline" : 								{
									"destination" : [ "obj-1205", 1 ],
									"order" : 0,
									"source" : [ "obj-1152", 0 ]
								}

							}
, 							{
								"patchline" : 								{
									"destination" : [ "obj-1206", 1 ],
									"order" : 1,
									"source" : [ "obj-1152", 0 ]
								}

							}
, 							{
								"patchline" : 								{
									"destination" : [ "obj-1152", 0 ],
									"source" : [ "obj-1154", 0 ]
								}

							}
, 							{
								"patchline" : 								{
									"destination" : [ "obj-2", 0 ],
									"source" : [ "obj-1205", 0 ]
								}

							}
, 							{
								"patchline" : 								{
									"destination" : [ "obj-1", 0 ],
									"source" : [ "obj-1206", 0 ]
								}

							}
, 							{
								"patchline" : 								{
									"destination" : [ "obj-1205", 0 ],
									"order" : 0,
									"source" : [ "obj-1282", 0 ]
								}

							}
, 							{
								"patchline" : 								{
									"destination" : [ "obj-1206", 0 ],
									"order" : 1,
									"source" : [ "obj-1282", 0 ]
								}

							}
, 							{
								"patchline" : 								{
									"destination" : [ "obj-8", 0 ],
									"midpoints" : [ 327.5, 48.5, 327.5, 48.5 ],
									"source" : [ "obj-1479", 0 ]
								}

							}
, 							{
								"patchline" : 								{
									"destination" : [ "obj-1206", 0 ],
									"source" : [ "obj-3", 0 ]
								}

							}
, 							{
								"patchline" : 								{
									"destination" : [ "obj-1206", 0 ],
									"source" : [ "obj-4", 0 ]
								}

							}
, 							{
								"patchline" : 								{
									"destination" : [ "obj-1154", 0 ],
									"midpoints" : [ 340.0, 87.1063232421875, 475.5, 87.1063232421875 ],
									"source" : [ "obj-54", 1 ]
								}

							}
, 							{
								"patchline" : 								{
									"destination" : [ "obj-1282", 0 ],
									"source" : [ "obj-54", 0 ]
								}

							}
, 							{
								"patchline" : 								{
									"destination" : [ "obj-54", 0 ],
									"source" : [ "obj-8", 0 ]
								}

							}
 ],
						"styles" : [ 							{
								"name" : "AudioStatus_Menu",
								"default" : 								{
									"bgfillcolor" : 									{
										"type" : "color",
										"color" : [ 0.294118, 0.313726, 0.337255, 1 ],
										"color1" : [ 0.454902, 0.462745, 0.482353, 0.0 ],
										"color2" : [ 0.290196, 0.309804, 0.301961, 1.0 ],
										"angle" : 270.0,
										"proportion" : 0.39,
										"autogradient" : 0
									}

								}
,
								"parentstyle" : "",
								"multi" : 0
							}
, 							{
								"name" : "Luca",
								"default" : 								{
									"color" : [ 0.475135, 0.293895, 0.251069, 1.0 ],
									"accentcolor" : [ 0.32549, 0.345098, 0.372549, 1.0 ],
									"elementcolor" : [ 0.786675, 0.801885, 0.845022, 1.0 ],
									"fontname" : [ "Open Sans Semibold" ],
									"selectioncolor" : [ 0.720698, 0.16723, 0.080014, 1.0 ],
									"textcolor_inverse" : [ 0.239216, 0.254902, 0.278431, 1.0 ],
									"bgcolor" : [ 0.904179, 0.895477, 0.842975, 0.56 ],
									"bgfillcolor" : 									{
										"type" : "gradient",
										"color" : [ 0.290196, 0.309804, 0.301961, 1.0 ],
										"color1" : [ 0.862745, 0.870588, 0.878431, 1.0 ],
										"color2" : [ 0.65098, 0.666667, 0.662745, 1.0 ],
										"angle" : 270.0,
										"proportion" : 0.39,
										"autogradient" : 0
									}

								}
,
								"parentstyle" : "",
								"multi" : 0
							}
, 							{
								"name" : "dark-night-patch",
								"default" : 								{
									"textcolor" : [ 0.862745, 0.870588, 0.878431, 1.0 ],
									"accentcolor" : [ 0.952941, 0.564706, 0.098039, 1.0 ],
									"patchlinecolor" : [ 0.439216, 0.74902, 0.254902, 0.898039 ],
									"bgfillcolor" : 									{
										"type" : "gradient",
										"color1" : [ 0.376471, 0.384314, 0.4, 1.0 ],
										"color2" : [ 0.290196, 0.309804, 0.301961, 1.0 ],
										"color" : [ 0.290196, 0.309804, 0.301961, 1.0 ],
										"angle" : 270.0,
										"proportion" : 0.39
									}

								}
,
								"parentstyle" : "",
								"multi" : 0
							}
 ]
					}
,
					"patching_rect" : [ 86.439453125, 209.0157470703125, 239.00048828125, 22.0 ],
					"saved_object_attributes" : 					{
						"description" : "",
						"digest" : "",
						"globalpatchername" : "",
						"tags" : ""
					}
,
					"text" : "p freeze"
				}

			}
, 			{
				"box" : 				{
					"fontname" : "Arial Bold",
					"fontsize" : 10.0,
					"id" : "obj-1414",
					"maxclass" : "textbutton",
					"mode" : 1,
					"numinlets" : 1,
					"numoutlets" : 3,
					"outlettype" : [ "", "", "int" ],
					"parameter_enable" : 1,
					"patching_rect" : [ 306.43994140625, 162.42510986328125, 82.0, 22.0 ],
					"presentation" : 1,
					"presentation_rect" : [ 6.676320850849152, 44.38177490234375, 96.818617165088654, 28.0 ],
					"saved_attribute_attributes" : 					{
						"valueof" : 						{
							"parameter_longname" : "Freeze-state",
							"parameter_mmax" : 1,
							"parameter_shortname" : "textbutton[53]",
							"parameter_enum" : [ "off", "on" ],
							"parameter_type" : 2,
							"parameter_linknames" : 1
						}

					}
,
					"text" : "freeze",
					"textcolor" : [ 0.996078431372549, 0.996078431372549, 0.996078431372549, 1.0 ],
					"texton" : "frozen",
					"textoncolor" : [ 0.427450980392157, 0.843137254901961, 1.0, 1.0 ],
					"varname" : "Freeze-state"
				}

			}
, 			{
				"box" : 				{
					"angle" : 270.0,
					"bgcolor" : [ 0.2, 0.2, 0.2, 1.0 ],
					"bordercolor" : [ 0.4274509804, 0.8431372549, 1.0, 1.0 ],
					"id" : "obj-29",
					"maxclass" : "panel",
					"mode" : 0,
					"numinlets" : 1,
					"numoutlets" : 0,
					"patching_rect" : [ 3.48358154296875, -5.2213134765625, 128.0, 128.0 ],
					"presentation" : 1,
					"presentation_rect" : [ 0.0, 0.071014404296875, 149.0, 127.0 ],
					"proportion" : 0.5
				}

			}
 ],
		"lines" : [ 			{
				"patchline" : 				{
					"destination" : [ "obj-1481", 0 ],
					"source" : [ "obj-1", 0 ]
				}

			}
, 			{
				"patchline" : 				{
					"destination" : [ "obj-1481", 3 ],
					"source" : [ "obj-1414", 0 ]
				}

			}
, 			{
				"patchline" : 				{
					"destination" : [ "obj-1482", 1 ],
					"source" : [ "obj-1481", 1 ]
				}

			}
, 			{
				"patchline" : 				{
					"destination" : [ "obj-1482", 0 ],
					"source" : [ "obj-1481", 0 ]
				}

			}
, 			{
				"patchline" : 				{
					"destination" : [ "obj-1757", 1 ],
					"source" : [ "obj-1482", 1 ]
				}

			}
, 			{
				"patchline" : 				{
					"destination" : [ "obj-1757", 0 ],
					"source" : [ "obj-1482", 0 ]
				}

			}
, 			{
				"patchline" : 				{
					"destination" : [ "obj-1152", 0 ],
					"order" : 0,
					"source" : [ "obj-1757", 1 ]
				}

			}
, 			{
				"patchline" : 				{
					"destination" : [ "obj-1152", 0 ],
					"order" : 0,
					"source" : [ "obj-1757", 0 ]
				}

			}
, 			{
				"patchline" : 				{
					"destination" : [ "obj-1807", 0 ],
					"order" : 1,
					"source" : [ "obj-1757", 1 ]
				}

			}
, 			{
				"patchline" : 				{
					"destination" : [ "obj-1816", 0 ],
					"order" : 1,
					"source" : [ "obj-1757", 0 ]
				}

			}
, 			{
				"patchline" : 				{
					"destination" : [ "obj-4", 0 ],
					"order" : 2,
					"source" : [ "obj-1757", 1 ]
				}

			}
, 			{
				"patchline" : 				{
					"destination" : [ "obj-5", 0 ],
					"order" : 2,
					"source" : [ "obj-1757", 0 ]
				}

			}
, 			{
				"patchline" : 				{
					"destination" : [ "obj-1481", 2 ],
					"source" : [ "obj-1758", 0 ]
				}

			}
, 			{
				"patchline" : 				{
					"destination" : [ "obj-1807", 1 ],
					"order" : 2,
					"source" : [ "obj-1817", 0 ]
				}

			}
, 			{
				"patchline" : 				{
					"destination" : [ "obj-1816", 1 ],
					"order" : 1,
					"source" : [ "obj-1817", 0 ]
				}

			}
, 			{
				"patchline" : 				{
					"destination" : [ "obj-1872", 0 ],
					"order" : 0,
					"source" : [ "obj-1817", 0 ]
				}

			}
, 			{
				"patchline" : 				{
					"destination" : [ "obj-1807", 0 ],
					"order" : 1,
					"source" : [ "obj-1869", 0 ]
				}

			}
, 			{
				"patchline" : 				{
					"destination" : [ "obj-1816", 0 ],
					"order" : 0,
					"source" : [ "obj-1869", 0 ]
				}

			}
, 			{
				"patchline" : 				{
					"destination" : [ "obj-1807", 0 ],
					"order" : 1,
					"source" : [ "obj-1871", 0 ]
				}

			}
, 			{
				"patchline" : 				{
					"destination" : [ "obj-1816", 0 ],
					"order" : 0,
					"source" : [ "obj-1871", 0 ]
				}

			}
, 			{
				"patchline" : 				{
					"destination" : [ "obj-1871", 0 ],
					"source" : [ "obj-1872", 0 ]
				}

			}
, 			{
				"patchline" : 				{
					"destination" : [ "obj-1757", 0 ],
					"source" : [ "obj-19", 1 ]
				}

			}
, 			{
				"patchline" : 				{
					"destination" : [ "obj-1481", 1 ],
					"source" : [ "obj-2", 0 ]
				}

			}
, 			{
				"patchline" : 				{
					"destination" : [ "obj-1414", 0 ],
					"source" : [ "obj-3", 0 ]
				}

			}
 ],
		"parameters" : 		{
			"obj-1758" : [ "Freeze-fade-time", "live.numbox", 0 ],
			"obj-1757" : [ "Freeze-vol", "vol", 0 ],
			"obj-1414" : [ "Freeze-state", "textbutton[53]", 0 ],
			"parameterbanks" : 			{

			}

		}
,
		"dependency_cache" : [ 			{
				"name" : "freeze8.pfft.maxpat",
				"bootpath" : "~/Documents/Max 8/Library/UpShot/upshot_freeze",
				"patcherrelativepath" : ".",
				"type" : "JSON",
				"implicit" : 1
			}
 ],
		"autosave" : 0,
		"styles" : [ 			{
				"name" : "AudioStatus_Menu",
				"default" : 				{
					"bgfillcolor" : 					{
						"type" : "color",
						"color" : [ 0.294118, 0.313726, 0.337255, 1 ],
						"color1" : [ 0.454902, 0.462745, 0.482353, 0.0 ],
						"color2" : [ 0.290196, 0.309804, 0.301961, 1.0 ],
						"angle" : 270.0,
						"proportion" : 0.39,
						"autogradient" : 0
					}

				}
,
				"parentstyle" : "",
				"multi" : 0
			}
, 			{
				"name" : "Luca",
				"default" : 				{
					"color" : [ 0.475135, 0.293895, 0.251069, 1.0 ],
					"accentcolor" : [ 0.32549, 0.345098, 0.372549, 1.0 ],
					"elementcolor" : [ 0.786675, 0.801885, 0.845022, 1.0 ],
					"fontname" : [ "Open Sans Semibold" ],
					"selectioncolor" : [ 0.720698, 0.16723, 0.080014, 1.0 ],
					"textcolor_inverse" : [ 0.239216, 0.254902, 0.278431, 1.0 ],
					"bgcolor" : [ 0.904179, 0.895477, 0.842975, 0.56 ],
					"bgfillcolor" : 					{
						"type" : "gradient",
						"color" : [ 0.290196, 0.309804, 0.301961, 1.0 ],
						"color1" : [ 0.862745, 0.870588, 0.878431, 1.0 ],
						"color2" : [ 0.65098, 0.666667, 0.662745, 1.0 ],
						"angle" : 270.0,
						"proportion" : 0.39,
						"autogradient" : 0
					}

				}
,
				"parentstyle" : "",
				"multi" : 0
			}
, 			{
				"name" : "dark-night-patch",
				"default" : 				{
					"textcolor" : [ 0.862745, 0.870588, 0.878431, 1.0 ],
					"accentcolor" : [ 0.952941, 0.564706, 0.098039, 1.0 ],
					"patchlinecolor" : [ 0.439216, 0.74902, 0.254902, 0.898039 ],
					"bgfillcolor" : 					{
						"type" : "gradient",
						"color1" : [ 0.376471, 0.384314, 0.4, 1.0 ],
						"color2" : [ 0.290196, 0.309804, 0.301961, 1.0 ],
						"color" : [ 0.290196, 0.309804, 0.301961, 1.0 ],
						"angle" : 270.0,
						"proportion" : 0.39
					}

				}
,
				"parentstyle" : "",
				"multi" : 0
			}
, 			{
				"name" : "helpfile_label-1",
				"default" : 				{
					"textcolor" : [ 0.501961, 0.501961, 0.501961, 1 ],
					"fontsize" : [ 13 ],
					"fontname" : [ "Arial" ]
				}
,
				"parentstyle" : "",
				"multi" : 0
			}
, 			{
				"name" : "newobjYellow-1",
				"default" : 				{
					"accentcolor" : [ 0.82517, 0.78181, 0.059545, 1.0 ],
					"fontsize" : [ 12.059008 ]
				}
,
				"parentstyle" : "",
				"multi" : 0
			}
, 			{
				"name" : "numberGold-1",
				"default" : 				{
					"accentcolor" : [ 0.764706, 0.592157, 0.101961, 1.0 ]
				}
,
				"parentstyle" : "",
				"multi" : 0
			}
 ]
	}

}
